<?xml version="1.0" standalone="no"?>
<!DOCTYPE svg PUBLIC "-//W3C//DTD SVG 20010904//EN"
 "http://www.w3.org/TR/2001/REC-SVG-20010904/DTD/svg10.dtd">
<svg version="1.0" xmlns="http://www.w3.org/2000/svg"
 width="1000.000000pt" height="1000.000000pt" viewBox="0 0 1000.000000 1000.000000"
 preserveAspectRatio="xMidYMid meet">

<g transform="translate(0.000000,1000.000000) scale(0.100000,-0.100000)"
fill="#000000" stroke="none">
<path d="M680 9524 c-92 -29 -176 -112 -202 -197 -10 -33 -13 -232 -13 -897 0
-817 1 -857 19 -904 24 -63 86 -130 151 -164 l50 -27 867 -3 c849 -2 867 -2
920 18 67 25 136 89 169 156 l24 49 3 868 2 869 -26 57 c-31 70 -91 132 -159
163 l-50 23 -855 2 c-724 2 -862 0 -900 -13z m1600 -319 c21 -12 44 -39 58
-65 l22 -44 0 -664 c0 -739 3 -706 -68 -760 l-35 -27 -679 -3 -680 -2 -39 22
c-22 12 -50 38 -62 58 -22 35 -22 35 -25 680 -2 355 0 664 3 688 8 52 62 117
109 131 18 6 314 9 696 8 648 -2 666 -3 700 -22z"/>
<path d="M1271 8900 c-51 -12 -112 -60 -146 -115 l-30 -48 0 -301 c0 -292 1
-302 22 -342 29 -55 93 -109 146 -123 29 -9 130 -11 328 -9 l286 3 49 30 c30
19 60 49 79 79 l30 49 3 286 c2 198 0 299 -9 328 -14 53 -68 117 -123 146 -39
21 -53 22 -321 24 -154 1 -295 -2 -314 -7z"/>
<path d="M3630 9385 l0 -155 155 0 155 0 0 -160 0 -160 -155 0 -155 0 0 -160
0 -160 155 0 155 0 0 -475 0 -475 -155 0 -154 0 -3 -157 -3 -158 -157 -3 -158
-3 0 -314 0 -315 155 0 154 0 3 158 3 157 633 3 632 2 0 -160 0 -160 -155 0
-154 0 -3 -162 c-2 -90 -2 -232 0 -315 l3 -153 469 0 469 0 3 158 3 157 158 3
157 3 0 -161 0 -160 160 0 160 0 0 -315 0 -314 163 -3 c89 -2 231 -2 315 0
l152 3 0 154 0 155 160 0 160 0 0 -475 0 -475 315 0 315 0 0 -315 0 -315 -155
0 -155 0 0 -160 0 -160 155 0 155 0 0 -155 0 -155 318 -2 317 -3 3 -157 3
-158 154 0 155 0 0 -160 0 -160 475 0 475 0 0 475 0 475 -155 0 -155 0 0 -157
c-1 -87 -1 -229 0 -315 l1 -158 -321 0 -320 0 0 475 0 475 475 0 475 0 0 630
0 630 -157 0 c-87 1 -229 1 -315 0 l-158 -1 0 161 0 160 315 0 315 0 0 160 0
160 -160 0 -160 0 0 155 0 155 -155 0 -155 0 0 -315 0 -315 -160 0 -160 0 0
-315 0 -315 -155 0 -155 0 0 -160 0 -160 155 0 155 0 0 -160 0 -161 -157 3
-158 3 -3 158 -3 157 -154 0 -155 0 0 320 0 320 155 0 155 0 0 315 0 315 -155
0 -155 0 0 -160 0 -160 -160 0 -160 0 0 160 0 160 -155 0 -155 0 0 -160 0
-160 155 0 155 0 0 -315 0 -315 -160 0 -161 0 1 158 c1 86 1 228 0 315 l0 157
-155 0 -155 0 0 160 0 160 155 0 155 0 0 155 0 155 -315 0 -315 0 0 320 0 320
160 0 160 0 0 -160 0 -160 155 0 155 0 0 160 0 160 -155 0 -155 0 0 1105 0
1105 -160 0 -160 0 0 -315 0 -315 -155 0 -154 0 -3 -157 -3 -158 -157 -3 -158
-3 0 161 0 160 -160 0 -160 0 0 315 0 314 -157 3 -158 3 -3 158 -3 157 -469 0
-470 0 0 -155 0 -155 155 0 155 0 0 -160 0 -160 160 0 160 0 0 -315 0 -315
158 0 c86 -1 228 -1 315 0 l157 1 0 -161 0 -160 315 0 314 0 3 158 3 157 158
3 157 3 0 -481 0 -481 -157 3 -158 3 -3 158 -3 157 -154 0 -155 0 0 -315 0
-315 160 0 161 0 -1 -317 c0 -175 0 -389 0 -475 l0 -158 155 0 155 0 0 -160 0
-160 -160 0 -160 0 0 160 0 160 -155 0 -155 0 0 315 0 315 -317 2 -318 3 -3
158 -3 157 161 0 160 0 0 315 0 315 -155 0 -154 0 -3 -157 -3 -158 -157 -3
-158 -3 0 161 0 160 155 0 155 0 0 160 0 160 -155 0 -155 0 0 155 0 154 -157
3 -158 3 -3 158 -3 157 -154 0 -154 0 -3 -157 -3 -158 -157 -3 -158 -3 0 636
0 635 -315 0 -315 0 0 -155z m1580 -1585 l0 -160 -160 0 -160 0 0 -160 0 -161
-157 3 -158 3 -3 158 -3 157 -154 0 -155 0 0 -160 0 -160 -160 0 -160 0 0 160
0 160 160 0 160 0 0 160 0 160 475 0 475 0 0 -160z m4118 -3007 l-3 -318 -157
-3 -158 -3 0 161 0 160 -160 0 -160 0 0 160 0 160 320 0 320 0 -2 -317z m-950
-635 l2 -318 -320 0 -320 0 0 160 0 160 160 0 160 0 0 160 0 161 158 -3 157
-3 3 -317z"/>
<path d="M6160 9385 l0 -155 155 0 155 0 0 155 0 155 -155 0 -155 0 0 -155z"/>
<path d="M7655 9526 c-89 -28 -152 -82 -196 -166 l-24 -45 -3 -867 c-2 -850
-2 -867 18 -921 24 -65 87 -132 156 -167 l49 -25 880 0 880 0 45 24 c87 45
137 106 166 200 21 70 21 1685 -1 1757 -28 96 -113 179 -212 209 -66 20 -1695
21 -1758 1z m1550 -306 c61 -14 112 -73 120 -141 3 -30 5 -340 3 -689 l-3
-635 -23 -37 c-13 -21 -40 -45 -66 -57 -41 -21 -55 -21 -704 -21 -734 0 -706
-2 -758 66 l-29 37 -3 679 -2 680 22 39 c23 41 54 66 97 79 37 12 1298 11
1346 0z"/>
<path d="M8245 8901 c-79 -20 -154 -89 -174 -164 -9 -29 -11 -130 -9 -328 l3
-286 30 -49 c19 -30 49 -60 79 -79 l49 -30 286 -3 c198 -2 299 0 328 9 53 14
117 68 146 123 21 39 22 55 25 313 4 323 -2 357 -73 428 -68 69 -102 75 -404
74 -141 -1 -269 -4 -286 -8z"/>
<path d="M2990 8750 l0 -469 158 -3 157 -3 3 -157 3 -158 -161 0 -160 0 0
-315 0 -315 160 0 160 0 0 155 0 155 155 0 154 0 3 318 c2 174 2 388 0 475
l-3 157 -154 0 -155 0 0 315 0 315 -160 0 -160 0 0 -470z"/>
<path d="M778 6853 l-3 -158 -157 -3 -158 -3 0 -154 0 -154 163 -3 c89 -2 231
-2 315 0 l152 3 0 154 0 155 160 0 160 0 0 160 0 160 -315 0 -314 0 -3 -157z"/>
<path d="M2360 6850 l0 -160 -160 0 -160 0 0 -315 0 -315 -315 0 -315 0 0
-320 0 -320 -160 0 -160 0 0 -315 0 -315 -155 0 -154 0 -3 -157 -3 -158 -157
-3 -158 -3 0 -469 0 -470 158 0 c86 -1 228 -1 315 0 l157 1 0 -161 0 -160
-315 0 -315 0 0 -160 0 -160 475 0 475 0 0 475 0 475 155 0 155 0 0 160 0 160
-155 0 -155 0 0 -160 0 -160 -160 0 -160 0 0 475 0 475 160 0 160 0 0 160 0
160 315 0 315 0 0 -160 0 -160 -155 0 -155 0 0 -155 0 -155 155 0 155 0 0 155
0 155 320 0 321 0 -3 -157 -3 -158 -317 -3 -318 -2 0 -155 0 -155 315 0 314 0
3 158 3 157 158 3 157 3 0 314 0 315 -315 0 -315 0 0 160 0 160 155 0 155 0 0
155 0 155 -155 0 -155 0 0 160 0 160 160 0 160 0 0 -160 0 -160 155 0 155 0 0
315 0 315 -157 0 c-87 1 -229 1 -315 0 l-158 -1 0 161 0 160 155 0 155 0 0
160 0 160 -155 0 -155 0 0 -160z"/>
<path d="M7740 6695 l0 -314 318 -3 c174 -2 388 -2 475 0 l157 3 0 154 0 155
315 0 315 0 0 160 0 160 -470 0 -469 0 -3 -157 -3 -158 -157 -3 -158 -3 0 161
0 160 -160 0 -160 0 0 -315z"/>
<path d="M3628 6533 l-3 -158 -157 -3 -158 -3 0 -154 0 -155 315 0 314 0 3
158 3 157 158 3 157 3 0 154 0 155 -315 0 -314 0 -3 -157z"/>
<path d="M460 5745 l0 -314 163 -3 c89 -2 231 -2 315 0 l152 3 0 314 0 315
-315 0 -315 0 0 -315z"/>
<path d="M4240 5978 c-95 -27 -196 -132 -220 -229 -7 -30 -10 -283 -8 -824 l3
-780 28 -53 c34 -65 89 -119 153 -152 l49 -25 805 0 805 0 49 25 c63 32 124
93 156 156 l25 49 0 805 0 805 -25 49 c-32 63 -93 124 -156 156 l-49 25 -790
2 c-504 1 -803 -2 -825 -9z m1012 -345 c66 -30 114 -69 149 -120 32 -46 59
-121 59 -165 0 -18 7 -29 19 -33 35 -11 115 -109 135 -164 14 -41 17 -70 14
-134 -6 -102 -37 -176 -104 -248 -90 -95 -170 -127 -338 -134 -67 -2 -112 -9
-116 -16 -4 -6 -20 -88 -34 -183 -36 -225 -34 -214 -41 -226 -4 -6 -60 -10
-140 -10 -149 0 -152 1 -140 71 19 115 25 148 29 182 l6 37 -124 0 c-69 0
-131 3 -140 6 -9 3 -16 18 -16 33 0 44 160 1074 172 1104 l11 28 276 -3 c259
-3 279 -4 323 -25z"/>
<path d="M3628 5583 l-3 -158 -157 -3 -158 -3 0 -474 0 -475 -160 0 -160 0 0
-155 0 -155 -155 0 -155 0 0 -160 0 -160 155 0 155 0 0 160 0 160 315 0 314 0
3 158 3 157 158 3 157 3 0 154 0 155 -160 0 -161 0 3 158 3 157 158 3 157 3 0
314 0 315 -155 0 -154 0 -3 -157z"/>
<path d="M460 4950 l0 -160 155 0 155 0 0 160 0 160 -155 0 -155 0 0 -160z"/>
<path d="M6160 4635 l0 -475 155 0 155 0 0 158 c1 86 1 228 0 315 l-1 157 161
0 160 0 0 160 0 160 -315 0 -315 0 0 -475z"/>
<path d="M6790 4315 l0 -155 -155 0 -154 0 -3 -317 c-2 -175 -2 -389 0 -475
l3 -158 154 0 155 0 0 -160 0 -160 -155 0 -154 0 -3 -157 -3 -158 -157 -3
-158 -3 0 321 0 320 -160 0 -160 0 0 -160 0 -160 -315 0 -315 0 0 320 0 321
158 -1 c86 -1 228 -1 315 0 l157 0 0 155 0 155 -475 0 -475 0 0 -160 0 -161
-157 3 -158 3 -3 158 -3 157 -314 0 -315 0 0 160 0 160 -155 0 -155 0 0 -160
0 -160 -160 0 -160 0 0 -315 0 -315 -160 0 -160 0 0 155 0 154 -157 3 -158 3
-3 158 -3 157 -314 0 -315 0 0 -160 0 -160 -155 0 -155 0 0 -155 0 -155 315 0
315 0 0 -160 0 -160 155 0 155 0 0 160 0 160 -155 0 -155 0 0 160 0 161 158
-3 157 -3 3 -157 3 -158 154 0 155 0 0 -160 0 -160 160 0 160 0 0 -790 0 -790
-160 0 -160 0 0 -315 0 -315 160 0 160 0 0 155 0 155 155 0 154 0 3 157 3 158
158 3 157 3 0 154 0 154 -157 3 -158 3 -3 157 -3 158 636 0 635 0 0 -160 0
-160 -155 0 -155 0 0 -155 0 -155 -160 0 -160 0 0 -320 0 -320 -160 0 -160 0
0 -155 0 -155 790 0 790 0 0 155 0 155 -155 0 -155 0 0 160 0 160 -160 0 -160
0 0 160 0 160 475 0 475 0 0 -160 0 -160 160 0 160 0 0 160 0 160 155 0 155 0
0 158 c1 86 1 228 0 315 l-1 157 161 0 160 0 0 -315 0 -315 -155 0 -155 0 0
-160 0 -160 155 0 155 0 0 -155 0 -154 158 -3 157 -3 3 -157 3 -158 154 0 154
0 3 157 3 158 158 3 157 3 0 314 0 315 -155 0 -155 0 0 -160 0 -160 -160 0
-160 0 0 160 0 160 155 0 154 0 3 158 3 157 318 3 317 2 0 -320 0 -320 155 0
154 0 3 157 3 158 158 3 157 3 0 -161 0 -160 -155 0 -154 0 -3 -158 -3 -157
-157 -3 -158 -3 0 -154 0 -155 155 0 154 0 3 157 3 158 158 3 157 3 0 154 0
155 160 0 160 0 0 -155 0 -154 153 -3 c83 -2 225 -2 315 0 l162 3 0 469 0 469
-157 3 -158 3 -3 158 -3 157 -154 0 -155 0 0 160 0 160 -160 0 -160 0 0 -160
0 -160 -160 0 -161 0 1 318 c0 174 0 460 0 635 l0 317 -315 0 -315 0 0 155 0
155 -157 0 c-87 1 -229 1 -315 0 l-158 -1 0 476 0 475 -160 0 -160 0 0 -155z
m-2212 -1107 l2 -318 315 0 315 0 0 -155 0 -155 158 0 c86 -1 228 -1 315 0
l157 1 0 -161 0 -160 160 0 160 0 0 -475 0 -475 -160 0 -160 0 0 315 0 315
-315 0 -315 0 0 160 0 160 -160 0 -160 0 0 155 0 154 -157 3 -158 3 -3 158 -3
157 -154 0 -155 0 0 -155 0 -154 158 -3 157 -3 3 -157 3 -158 -321 0 -320 0 0
155 0 154 -157 3 -158 3 -3 158 -3 157 -154 0 -155 0 0 160 0 160 155 0 155 0
0 153 c0 85 3 157 7 160 3 4 218 6 477 5 l471 -3 3 -317z m3482 -793 l0 -475
-475 0 -475 0 0 475 0 475 475 0 475 0 0 -475z m950 -790 l0 -314 158 -3 157
-3 3 -157 3 -158 -161 0 -160 0 0 160 0 160 -160 0 -160 0 0 315 0 315 160 0
160 0 0 -315z m-4120 -795 l0 -161 -157 3 -158 3 -3 158 -3 157 161 0 160 0 0
-160z"/>
<path d="M7430 2415 l0 -155 155 0 155 0 0 155 0 155 -155 0 -155 0 0 -155z"/>
<path d="M690 2561 c-87 -27 -164 -94 -202 -176 l-23 -50 -3 -849 c-3 -941 -5
-910 62 -998 40 -52 112 -100 176 -117 33 -9 265 -11 890 -9 l845 3 52 24 c68
30 134 102 162 174 21 57 21 63 21 907 0 827 -1 851 -20 903 -24 65 -91 136
-158 169 l-47 23 -865 2 c-476 1 -876 -2 -890 -6z m1574 -315 c18 -8 46 -31
62 -52 l29 -37 3 -679 2 -680 -22 -39 c-12 -22 -38 -50 -58 -62 l-35 -22 -658
-3 c-432 -2 -671 1 -696 8 -59 16 -108 75 -116 142 -3 29 -5 339 -3 688 l3
635 23 37 c13 20 41 45 65 57 41 21 52 21 705 21 544 0 669 -2 696 -14z"/>
<path d="M1251 1927 c-48 -18 -108 -72 -134 -120 -21 -40 -22 -55 -25 -314 -4
-323 2 -357 73 -428 71 -71 105 -77 428 -73 258 3 274 4 313 25 55 29 109 93
123 146 9 29 11 130 9 328 l-3 286 -30 49 c-19 30 -49 60 -79 79 l-49 30 -296
2 c-216 1 -305 -1 -330 -10z"/>
<path d="M9330 2255 l0 -315 155 0 155 0 0 315 0 315 -155 0 -155 0 0 -315z"/>
<path d="M3628 833 l-3 -158 -157 -3 -158 -3 0 -154 0 -155 155 0 154 0 3 158
3 157 158 3 157 3 0 154 0 155 -155 0 -154 0 -3 -157z"/>
<path d="M8690 515 l0 -155 160 0 160 0 0 155 0 155 -160 0 -160 0 0 -155z"/>
</g>
</svg>
