<?xml version="1.0" standalone="no"?>
<!DOCTYPE svg PUBLIC "-//W3C//DTD SVG 20010904//EN"
 "http://www.w3.org/TR/2001/REC-SVG-20010904/DTD/svg10.dtd">
<svg version="1.0" xmlns="http://www.w3.org/2000/svg"
 width="165.000000pt" height="166.000000pt" viewBox="0 0 165.000000 166.000000"
 preserveAspectRatio="xMidYMid meet">

<g transform="translate(0.000000,166.000000) scale(0.100000,-0.100000)"
fill="#000000" stroke="none">
<path d="M20 1485 l0 -135 135 0 135 0 0 135 0 135 -135 0 -135 0 0 -135z
m230 5 l0 -100 -95 0 -95 0 0 100 0 100 95 0 95 0 0 -100z"/>
<path d="M100 1490 l0 -60 55 0 55 0 0 60 0 60 -55 0 -55 0 0 -60z"/>
<path d="M450 1605 c0 -8 -9 -15 -20 -15 -13 0 -20 -7 -20 -20 0 -13 7 -20 20
-20 14 0 20 -7 20 -21 0 -14 5 -19 18 -17 11 2 17 12 16 31 -1 15 -2 38 -3 52
-1 27 -31 36 -31 10z"/>
<path d="M530 1525 c0 -88 1 -95 20 -95 18 0 20 -7 20 -56 0 -47 -3 -57 -20
-61 -11 -3 -20 -11 -20 -18 0 -7 9 -15 20 -18 15 -4 20 -14 20 -41 0 -25 4
-36 15 -36 8 0 15 -9 15 -20 0 -13 7 -20 20 -20 13 0 20 -7 20 -20 0 -17 7
-20 41 -20 l41 0 -7 -74 c-4 -42 -3 -81 2 -91 15 -26 4 -65 -18 -65 -11 0 -19
7 -19 15 0 11 -11 15 -40 15 -33 0 -40 -3 -40 -20 0 -18 -7 -20 -75 -20 -60 0
-75 -3 -75 -15 0 -8 -9 -15 -20 -15 -17 0 -20 -7 -20 -40 0 -33 3 -40 20 -40
13 0 20 -7 20 -20 0 -13 -7 -20 -20 -20 -13 0 -20 -7 -20 -20 0 -13 7 -20 20
-20 14 0 20 -7 20 -21 0 -14 5 -19 18 -17 9 2 17 10 17 18 0 8 10 16 23 18 17
3 22 -2 22 -17 0 -12 6 -21 15 -21 8 0 15 9 15 20 0 13 7 20 20 20 20 0 20 -1
-2 -40 -25 -43 -47 -51 -55 -20 -7 26 -29 26 -36 0 -4 -15 -14 -20 -41 -20
-25 0 -36 -4 -36 -15 0 -12 14 -15 70 -15 59 0 71 -3 80 -20 10 -18 8 -20 -30
-20 l-40 0 0 -80 c0 -73 2 -80 20 -80 13 0 20 -7 20 -20 0 -27 -37 -27 -45 0
-8 26 -35 26 -35 0 0 -13 -7 -20 -20 -20 -13 0 -20 7 -20 20 0 13 -7 20 -20
20 -13 0 -20 7 -20 20 0 17 7 20 41 20 33 0 40 3 37 17 -2 13 -14 19 -41 21
-32 3 -37 0 -37 -17 0 -14 -6 -21 -20 -21 -16 0 -19 8 -22 58 l-3 57 -52 3
c-32 2 -54 -1 -54 -7 -1 -6 -3 -15 -4 -21 -1 -5 -3 -19 -4 -30 -1 -17 -8 -20
-56 -20 -48 0 -55 -2 -55 -20 0 -18 7 -20 55 -20 48 0 55 2 55 20 0 13 7 20
20 20 13 0 20 -7 20 -20 0 -17 7 -20 40 -20 33 0 40 -3 40 -20 0 -13 7 -20 20
-20 13 0 20 -7 20 -20 0 -13 -7 -20 -20 -20 -13 0 -20 -7 -20 -20 0 -18 7 -20
80 -20 l80 0 0 -40 0 -40 40 0 c29 0 40 -4 40 -15 0 -10 11 -15 35 -15 24 0
35 5 35 15 0 10 15 15 57 17 46 2 59 7 61 20 2 13 -3 18 -17 18 -14 0 -21 6
-21 20 0 27 36 27 43 0 3 -11 12 -20 21 -20 9 0 16 -8 16 -20 0 -13 7 -20 20
-20 12 0 20 -7 20 -16 0 -9 -9 -18 -20 -21 -37 -10 -23 -33 20 -33 33 0 40 -3
40 -20 0 -11 7 -20 15 -20 10 0 15 11 15 35 0 24 -5 35 -15 35 -8 0 -15 9 -15
20 0 11 7 20 15 20 8 0 15 9 15 20 0 11 -7 20 -15 20 -11 0 -15 11 -15 40 0
29 4 40 15 40 11 0 15 11 15 40 l0 40 -55 0 c-48 0 -55 2 -55 20 0 18 7 20 54
20 l55 0 3 38 c2 29 7 37 23 37 18 0 20 -8 23 -77 2 -60 6 -78 17 -78 12 0 15
14 15 60 0 53 2 60 20 60 13 0 20 7 20 20 0 13 7 20 20 20 13 0 20 -7 20 -19
0 -10 -9 -21 -20 -24 -17 -4 -20 -14 -20 -61 0 -49 2 -56 20 -56 16 0 19 -8
22 -58 l3 -57 75 0 75 0 3 38 c3 32 0 37 -17 37 -14 0 -21 -6 -21 -20 0 -13
-7 -20 -20 -20 -17 0 -20 7 -20 40 l0 40 -40 0 c-33 0 -40 3 -40 20 0 18 7 20
80 20 73 0 80 -2 80 -20 0 -13 7 -20 20 -20 20 0 21 -5 18 -97 -3 -84 -6 -98
-20 -101 -13 -2 -18 3 -18 17 0 14 -6 21 -20 21 -16 0 -20 -7 -20 -35 l0 -35
-60 0 c-53 0 -60 -2 -60 -20 0 -12 -7 -20 -16 -20 -9 0 -18 -9 -21 -20 -3 -11
-14 -20 -24 -20 -12 0 -19 7 -19 20 0 13 7 20 20 20 13 0 20 7 20 20 0 13 -7
20 -20 20 -13 0 -20 -7 -20 -20 0 -16 -7 -20 -35 -20 -28 0 -35 -4 -35 -20 0
-16 7 -20 34 -20 25 0 35 -5 39 -20 3 -11 12 -20 21 -20 9 0 16 8 16 20 0 13
7 20 20 20 13 0 20 -7 20 -20 0 -13 7 -20 20 -20 13 0 20 7 20 20 0 13 -7 20
-20 20 -13 0 -20 7 -20 20 0 18 7 20 80 20 73 0 80 2 80 20 0 29 69 29 77 0 9
-34 32 -23 35 18 3 35 5 37 41 40 l37 3 0 -40 c0 -31 -4 -41 -16 -41 -9 0 -18
-9 -21 -20 -4 -15 -14 -20 -39 -20 -27 0 -34 -4 -34 -20 0 -16 7 -20 35 -20
28 0 35 4 35 20 0 13 7 20 20 20 13 0 20 -7 20 -20 0 -13 7 -20 20 -20 13 0
20 7 20 20 0 13 -7 20 -20 20 -13 0 -20 7 -20 20 0 18 7 20 80 20 73 0 80 -2
80 -20 0 -13 7 -20 20 -20 26 0 26 30 1 37 -11 3 -21 13 -24 24 -4 16 -14 19
-61 19 -49 0 -56 2 -56 20 0 13 7 20 20 20 11 0 20 7 20 15 0 9 -9 15 -21 15
-15 0 -20 5 -17 23 2 12 6 21 11 20 4 -2 30 -3 57 -3 43 0 50 -3 50 -20 0 -13
-7 -20 -20 -20 -11 0 -20 -7 -20 -15 0 -8 9 -15 20 -15 11 0 20 6 20 14 0 7 9
16 20 19 15 4 20 14 20 41 l0 36 -80 0 c-73 0 -80 2 -80 20 0 13 7 20 20 20
13 0 20 7 20 20 0 13 -7 20 -20 20 -13 0 -20 7 -20 20 0 13 -7 20 -20 20 -13
0 -20 7 -20 20 0 17 7 20 40 20 33 0 40 -3 40 -20 0 -13 7 -20 20 -20 13 0 20
7 20 20 0 14 7 20 21 20 25 0 22 33 -4 38 -12 2 -17 -3 -17 -17 0 -28 -36 -28
-43 -1 -3 11 -12 20 -21 20 -12 0 -16 10 -16 35 0 28 -4 35 -20 35 -11 0 -20
-7 -20 -15 0 -8 -9 -15 -20 -15 -11 0 -20 7 -20 15 0 10 -11 15 -35 15 -24 0
-35 -5 -35 -15 0 -8 -9 -15 -20 -15 -17 0 -20 -7 -20 -40 0 -43 23 -57 33 -20
4 15 14 20 41 20 35 0 36 -1 36 -40 0 -29 -4 -40 -15 -40 -8 0 -15 -9 -15 -20
0 -15 -7 -20 -25 -20 -18 0 -25 5 -25 19 0 10 -9 21 -20 24 -11 3 -20 12 -20
21 0 9 -6 16 -14 16 -7 0 -16 9 -19 20 -7 26 -37 26 -37 0 0 -13 -7 -20 -20
-20 -12 0 -20 7 -20 16 0 9 -9 18 -20 21 -11 3 -20 12 -20 20 0 8 -9 17 -20
20 -11 3 -20 12 -20 19 0 8 -9 14 -20 14 -11 0 -20 -7 -20 -15 0 -8 -9 -15
-20 -15 -11 0 -20 7 -20 15 0 12 -19 15 -115 15 -96 0 -115 -3 -115 -15 0 -11
11 -15 40 -15 33 0 40 -3 40 -20 0 -13 -7 -20 -20 -20 -13 0 -20 -7 -20 -20 0
-13 -7 -20 -20 -20 -17 0 -20 7 -20 40 0 33 -3 40 -20 40 -17 0 -20 -7 -20
-40 0 -33 3 -40 20 -40 17 0 20 -7 20 -40 l0 -40 -40 0 c-33 0 -40 3 -40 20 0
17 -7 20 -40 20 l-40 0 0 40 c0 33 3 40 20 40 13 0 20 -7 20 -20 0 -13 7 -20
20 -20 13 0 20 7 20 20 0 11 -6 20 -12 20 -7 0 1 9 17 19 36 23 68 59 76 86 4
17 12 20 58 17 39 -3 57 0 71 13 18 16 20 16 26 1 9 -23 74 -22 74 2 0 16 21
32 63 48 13 5 17 14 15 29 -4 18 -1 21 19 17 29 -6 32 -42 3 -42 -13 0 -20 -7
-20 -20 0 -13 -7 -20 -20 -20 -11 0 -20 -7 -20 -15 0 -8 9 -15 20 -15 13 0 20
-7 20 -20 0 -18 7 -20 60 -20 47 0 60 3 60 15 0 11 -11 15 -40 15 -33 0 -40 3
-40 20 0 13 7 20 20 20 17 0 20 7 20 40 l0 40 40 0 c33 0 40 -3 40 -20 0 -13
-7 -20 -20 -20 -16 0 -20 -7 -20 -35 0 -28 4 -35 20 -35 16 0 20 7 20 35 0 28
4 35 20 35 13 0 20 -7 20 -20 0 -16 7 -20 35 -20 28 0 35 4 35 20 0 13 -7 20
-20 20 -13 0 -20 7 -20 20 0 16 -7 20 -35 20 -28 0 -35 4 -35 20 0 17 -7 20
-40 20 -33 0 -40 3 -40 20 0 17 7 20 40 20 33 0 40 3 40 20 0 11 6 20 14 20 8
0 16 7 20 15 4 10 -1 15 -14 15 -11 0 -20 -7 -20 -15 0 -11 -11 -15 -40 -15
-33 0 -40 -3 -40 -20 0 -13 -7 -20 -20 -20 -13 0 -20 -7 -20 -20 0 -13 7 -20
20 -20 13 0 20 -7 20 -20 0 -13 -7 -20 -20 -20 -13 0 -20 7 -20 20 0 11 -7 20
-15 20 -8 0 -15 9 -15 20 0 11 7 20 15 20 8 0 15 9 15 20 0 11 -7 20 -15 20
-9 0 -15 9 -15 23 0 12 -4 27 -8 33 -11 16 -48 34 -72 34 -12 0 -18 5 -15 10
3 6 15 10 26 10 12 0 19 7 19 20 0 11 -7 20 -15 20 -8 0 -15 9 -15 20 0 11 7
20 15 20 8 0 15 9 15 20 0 13 7 20 20 20 13 0 20 -7 20 -20 0 -13 -7 -20 -20
-20 -12 0 -20 -7 -20 -16 0 -9 9 -18 20 -21 15 -4 20 -14 20 -39 0 -27 4 -34
20 -34 16 0 20 7 20 34 0 25 5 35 20 39 11 3 20 12 20 21 0 12 10 16 40 16 33
0 40 -3 40 -20 0 -13 -7 -20 -19 -20 -16 0 -20 -8 -23 -37 -3 -36 -5 -38 -40
-41 -25 -2 -38 -8 -38 -18 0 -11 14 -14 60 -14 53 0 60 2 60 20 0 13 7 20 20
20 11 0 19 6 17 12 -1 7 8 14 21 16 28 4 31 -28 2 -35 -34 -9 -24 -33 14 -33
25 0 35 5 39 20 3 11 12 20 21 20 9 0 16 7 16 15 0 8 -9 15 -20 15 -13 0 -20
7 -20 19 0 10 -9 21 -20 24 -11 3 -20 12 -20 21 0 12 -10 16 -35 16 l-35 0 0
60 c0 53 2 60 20 60 13 0 20 -7 20 -20 0 -11 7 -20 15 -20 23 0 18 37 -6 43
-12 3 -18 10 -14 17 4 7 -2 14 -14 17 -12 3 -21 12 -21 19 0 8 -6 14 -12 15
-7 0 -33 1 -58 2 -38 2 -45 5 -48 25 -3 17 2 22 17 22 12 0 21 6 21 15 0 11
-11 15 -40 15 -33 0 -40 -3 -40 -20 0 -13 -7 -20 -20 -20 -13 0 -20 -7 -20
-20 0 -13 -7 -20 -20 -20 -11 0 -20 -7 -20 -15 0 -8 -9 -15 -20 -15 -11 0 -20
7 -20 15 0 8 -7 15 -15 15 -8 0 -15 -7 -15 -15 0 -11 -11 -15 -40 -15 -33 0
-40 3 -40 20 0 13 7 20 20 20 11 0 20 7 20 15 0 12 -13 15 -60 15 -47 0 -60
-3 -60 -15 0 -8 9 -15 20 -15 13 0 20 -7 20 -20 0 -13 -7 -20 -20 -20 -11 0
-20 6 -20 14 0 10 -13 16 -37 18 l-38 3 -3 78 c-3 72 -1 77 18 77 18 0 20 -6
20 -55 0 -47 3 -55 19 -55 10 0 21 9 24 20 3 11 12 20 21 20 9 0 16 6 16 14 0
7 9 16 20 19 15 4 20 14 20 41 0 34 1 36 35 36 28 0 35 4 35 20 0 11 -7 20
-15 20 -8 0 -15 9 -15 20 0 18 7 20 55 20 48 0 55 2 55 20 0 13 7 20 20 20 13
0 20 7 20 20 0 12 -7 20 -16 20 -9 0 -18 -9 -21 -20 -3 -11 -14 -20 -24 -20
-12 0 -19 7 -19 20 0 11 -7 20 -15 20 -8 0 -15 -9 -15 -20 0 -13 -7 -20 -20
-20 -13 0 -20 7 -20 20 0 11 7 20 15 20 8 0 15 7 15 15 0 10 -11 15 -35 15
-24 0 -35 -5 -35 -15 0 -8 -9 -15 -20 -15 -19 0 -20 -7 -20 -120 0 -113 -1
-120 -20 -120 -13 0 -20 7 -20 20 0 13 -7 20 -20 20 -13 0 -20 7 -20 20 0 13
7 20 20 20 13 0 20 7 20 20 0 13 -7 20 -20 20 -13 0 -20 -7 -20 -20 0 -17 -7
-20 -40 -20 l-40 0 0 -115 c0 -108 -1 -115 -20 -115 -19 0 -20 7 -20 135 0
128 1 135 20 135 17 0 20 7 20 41 0 33 -3 40 -17 37 -13 -2 -19 -14 -21 -41
-3 -29 -7 -37 -23 -37 -16 0 -19 7 -19 40 0 33 3 40 20 40 13 0 20 7 20 20 0
17 7 20 40 20 l40 0 0 -40 0 -40 40 0 c30 0 40 4 40 16 0 9 -9 18 -20 21 -11
3 -20 14 -20 24 0 12 7 19 20 19 11 0 20 7 20 15 0 12 -19 15 -115 15 l-115 0
0 -95z m230 -345 c0 -13 7 -20 20 -20 13 0 20 7 20 20 0 13 7 20 20 20 13 0
20 -7 20 -20 0 -11 -7 -20 -15 -20 -8 0 -25 -10 -37 -22 l-23 -23 -3 23 c-3
18 -10 22 -43 22 -32 0 -39 3 -39 20 0 17 7 20 40 20 33 0 40 -3 40 -20z m470
0 c0 -18 -7 -20 -80 -20 -73 0 -80 -2 -80 -20 0 -12 -7 -20 -16 -20 -9 0 -18
-9 -21 -20 -7 -27 -54 -27 -71 1 -7 11 -29 27 -48 35 -18 8 -34 16 -34 19 0 3
18 5 40 5 33 0 40 -3 40 -20 0 -11 7 -20 15 -20 11 0 15 11 15 40 l0 40 120 0
c113 0 120 -1 120 -20z m-40 -80 c0 -13 -7 -20 -20 -20 -13 0 -20 -7 -20 -20
0 -13 -7 -20 -20 -20 -17 0 -20 7 -20 40 l0 40 40 0 c33 0 40 -3 40 -20z
m-272 -36 c49 -55 12 -144 -60 -144 -18 0 -42 -3 -53 -6 -15 -4 -21 0 -22 13
0 10 -6 32 -14 49 -37 91 84 162 149 88z m352 -84 c0 -13 -7 -20 -20 -20 -13
0 -20 7 -20 20 0 13 7 20 20 20 13 0 20 -7 20 -20z m-610 -94 c0 -3 -4 -8 -10
-11 -5 -3 -10 -1 -10 4 0 6 5 11 10 11 6 0 10 -2 10 -4z m370 -25 c0 -22 -11
-36 -39 -50 -16 -9 -20 -16 -12 -24 7 -7 14 -7 24 1 21 18 29 1 10 -20 -20
-23 -49 -23 -63 0 -10 16 -10 16 -20 0 -6 -10 -22 -18 -35 -18 -14 0 -25 -6
-25 -13 0 -10 16 -12 65 -9 43 3 65 1 65 -7 0 -11 -17 -16 -92 -26 -27 -3 -48
-11 -48 -17 0 -7 -4 -7 -12 -1 -8 6 -33 6 -66 0 -50 -8 -54 -11 -77 -57 -30
-59 -60 -79 -82 -57 -21 21 -8 73 24 95 59 40 82 75 44 65 -35 -9 -36 10 -5
106 10 31 24 -5 15 -37 -14 -48 5 -39 31 15 22 43 46 58 40 23 -1 -9 4 -6 14
8 11 14 27 22 46 22 29 0 29 0 24 -47 l-5 -48 11 48 c8 38 16 51 37 58 21 9
29 7 41 -9 16 -19 17 -19 37 4 23 26 53 23 53 -5z m-462 -53 c5 -54 32 -52 32
2 0 30 4 40 16 40 13 0 15 -7 9 -37 -4 -21 -11 -39 -16 -41 -5 -2 -9 -12 -9
-23 0 -12 -7 -19 -20 -19 -13 0 -20 7 -20 20 0 11 -7 20 -15 20 -8 0 -15 -9
-15 -20 0 -24 -35 -28 -44 -4 -4 11 1 18 14 21 11 3 20 14 20 24 0 15 -7 19
-35 19 -29 0 -35 4 -35 20 0 19 5 21 58 18 l57 -3 3 -37z m-278 -328 c0 -13
-7 -20 -20 -20 -13 0 -20 7 -20 20 0 13 7 20 20 20 13 0 20 -7 20 -20z m310
-80 c0 -13 7 -20 20 -20 13 0 20 -7 20 -20 0 -13 7 -20 20 -20 17 0 20 -7 20
-40 0 -33 -3 -40 -20 -40 -13 0 -20 -7 -20 -20 0 -13 -7 -20 -20 -20 -13 0
-20 7 -20 19 0 10 -9 21 -20 24 -11 3 -20 12 -20 21 0 9 8 16 20 16 17 0 20 7
20 40 0 33 -3 40 -20 40 -13 0 -20 7 -20 20 0 13 7 20 20 20 13 0 20 -7 20
-20z m820 0 c0 -13 -7 -20 -20 -20 -13 0 -20 7 -20 20 0 13 7 20 20 20 13 0
20 -7 20 -20z m-540 -40 c0 -13 -7 -20 -20 -20 -13 0 -20 -7 -20 -20 0 -17 -7
-20 -40 -20 -33 0 -40 3 -40 20 0 16 7 20 36 20 27 0 37 5 41 20 3 11 14 20
24 20 12 0 19 -7 19 -20z m540 -80 l0 -61 -57 3 -58 3 -3 58 -3 57 61 0 60 0
0 -60z"/>
<path d="M804 1029 c-4 -7 2 -20 17 -32 l24 -20 -24 8 c-17 5 -22 4 -19 -6 3
-8 20 -15 40 -17 32 -3 37 0 52 33 22 46 14 59 -9 15 -18 -34 -27 -34 -29 2
-1 26 -39 38 -52 17z m36 -9 c0 -5 -5 -10 -11 -10 -5 0 -7 5 -4 10 3 6 8 10
11 10 2 0 4 -4 4 -10z"/>
<path d="M986 844 c-5 -14 -4 -15 9 -4 17 14 19 20 6 20 -5 0 -12 -7 -15 -16z"/>
<path d="M894 814 c-17 -41 -10 -59 12 -30 14 19 20 66 8 66 -3 0 -12 -16 -20
-36z"/>
<path d="M800 809 c-7 -11 -9 -28 -5 -37 5 -15 7 -15 14 -2 5 8 12 25 15 38 9
28 -9 29 -24 1z"/>
<path d="M746 738 c-3 -17 -5 -33 -3 -35 2 -2 28 2 57 8 35 7 48 14 39 19 -7
5 -26 6 -41 3 -21 -4 -28 -2 -28 10 0 30 -18 26 -24 -5z"/>
<path d="M657 632 c-18 -19 -23 -42 -9 -42 4 0 16 14 25 30 20 33 10 40 -16
12z"/>
<path d="M1350 279 c0 -24 23 -21 28 4 2 10 -3 17 -12 17 -10 0 -16 -9 -16
-21z"/>
<path d="M960 1605 c0 -8 7 -15 15 -15 8 0 15 7 15 15 0 8 -7 15 -15 15 -8 0
-15 -7 -15 -15z"/>
<path d="M1070 1586 c0 -25 -5 -35 -20 -39 -15 -4 -20 -14 -20 -37 0 -23 5
-33 20 -37 16 -4 20 -14 20 -44 0 -32 -3 -39 -20 -39 -13 0 -20 7 -20 20 0 13
-7 20 -20 20 -12 0 -20 -7 -20 -16 0 -9 9 -18 20 -21 15 -4 20 -14 20 -39 0
-27 4 -34 20 -34 16 0 20 7 20 35 0 28 4 35 20 35 13 0 20 -7 20 -20 0 -13 7
-20 20 -20 13 0 20 7 20 20 0 13 7 20 20 20 13 0 20 -7 20 -20 0 -13 7 -20 20
-20 13 0 20 -7 20 -20 0 -13 -7 -20 -20 -20 -11 0 -20 -7 -20 -15 0 -8 9 -15
20 -15 11 0 20 7 20 15 0 8 6 15 13 16 6 1 21 2 32 3 16 1 21 9 23 39 2 28 0
37 -12 37 -9 0 -16 -9 -16 -20 0 -13 -7 -20 -20 -20 -17 0 -20 7 -20 40 0 29
4 40 15 40 8 0 15 9 15 20 0 16 -7 20 -35 20 -28 0 -35 4 -35 20 0 13 -7 20
-20 20 -13 0 -20 -7 -20 -20 0 -13 7 -20 20 -20 13 0 20 -7 20 -20 0 -17 -7
-20 -40 -20 l-40 0 0 40 c0 33 -3 40 -20 40 -13 0 -20 7 -20 20 0 18 7 20 80
20 73 0 80 -2 80 -20 0 -13 7 -20 20 -20 13 0 20 -7 20 -20 0 -11 7 -20 15
-20 8 0 15 9 15 20 0 11 -6 20 -14 20 -8 0 -18 9 -21 20 -3 11 -13 20 -21 20
-8 0 -14 9 -14 20 0 13 7 20 20 20 13 0 20 -7 20 -20 0 -11 7 -20 15 -20 10 0
15 11 15 35 l0 35 -55 0 c-42 0 -55 -3 -55 -15 0 -11 -11 -15 -40 -15 -29 0
-40 4 -40 15 0 8 -9 15 -20 15 -16 0 -20 -7 -20 -34z"/>
<path d="M1350 1485 l0 -135 135 0 135 0 0 135 0 135 -135 0 -135 0 0 -135z
m230 5 l0 -100 -100 0 -100 0 0 100 0 100 100 0 100 0 0 -100z"/>
<path d="M1427 1544 c-4 -4 -7 -31 -7 -61 l0 -53 60 0 61 0 -3 58 -3 57 -50 3
c-28 2 -54 0 -58 -4z"/>
<path d="M332 1433 c2 -97 6 -118 18 -118 11 0 16 14 18 58 3 49 6 57 22 57
18 0 20 -7 20 -56 0 -47 3 -57 20 -61 11 -3 20 -12 20 -19 0 -8 9 -14 20 -14
13 0 17 5 14 14 -3 9 3 17 15 21 18 5 21 14 21 61 0 39 -4 54 -14 54 -7 0 -16
9 -19 20 -4 15 -14 20 -41 20 -26 0 -36 4 -36 16 0 9 -9 18 -19 21 -11 3 -21
13 -24 24 -3 10 -12 19 -21 19 -15 0 -16 -15 -14 -117z m158 -63 c0 -13 -7
-20 -20 -20 -13 0 -20 7 -20 20 0 13 7 20 20 20 13 0 20 -7 20 -20z"/>
<path d="M880 1370 c0 -13 -7 -20 -20 -20 -13 0 -20 -7 -20 -20 0 -11 3 -19 8
-19 20 3 32 -2 32 -16 0 -8 7 -15 15 -15 8 0 15 7 15 15 0 8 3 16 8 16 55 9
64 7 69 -12 6 -22 43 -26 43 -4 0 8 -9 15 -20 15 -17 0 -20 7 -20 40 0 43 -23
57 -33 20 -3 -12 -14 -20 -26 -20 -14 0 -21 6 -21 20 0 11 -7 20 -15 20 -8 0
-15 -9 -15 -20z"/>
<path d="M20 1215 c0 -88 1 -95 20 -95 13 0 20 -7 20 -20 0 -13 -7 -20 -20
-20 -13 0 -20 -7 -20 -20 0 -13 7 -20 20 -20 13 0 20 7 20 20 0 11 7 20 15 20
8 0 15 9 15 20 0 11 -7 20 -15 20 -11 0 -15 11 -15 40 0 29 4 40 15 40 8 0 15
7 15 15 0 8 -7 15 -15 15 -11 0 -15 11 -15 40 0 33 -3 40 -20 40 -19 0 -20 -7
-20 -95z"/>
<path d="M100 1295 c0 -11 13 -15 54 -15 45 0 54 -3 59 -20 3 -11 12 -20 21
-20 9 0 16 8 16 20 0 13 7 20 20 20 11 0 20 7 20 15 0 12 -17 15 -95 15 -78 0
-95 -3 -95 -15z"/>
<path d="M1350 1295 c0 -8 7 -15 15 -15 11 0 15 -11 15 -40 0 -33 3 -40 20
-40 13 0 20 -7 20 -20 0 -16 -7 -20 -35 -20 -28 0 -35 -4 -35 -20 0 -11 6 -20
14 -20 7 0 16 -9 19 -20 4 -17 14 -20 61 -20 49 0 56 -2 56 -20 0 -13 7 -20
20 -20 13 0 20 7 20 20 0 13 -7 20 -20 20 -13 0 -20 7 -20 20 0 17 7 20 40 20
33 0 40 3 40 20 0 14 7 20 21 20 25 0 22 33 -4 38 -12 2 -17 -3 -17 -17 0 -14
-6 -21 -20 -21 -13 0 -20 7 -20 20 0 13 -7 20 -20 20 -17 0 -20 7 -20 40 0 33
3 40 20 40 11 0 20 7 20 15 0 12 -17 15 -95 15 -78 0 -95 -3 -95 -15z m110
-75 c0 -13 -7 -20 -20 -20 -13 0 -20 7 -20 20 0 13 7 20 20 20 13 0 20 -7 20
-20z"/>
<path d="M290 1255 c0 -8 9 -15 20 -15 11 0 20 7 20 15 0 8 -9 15 -20 15 -11
0 -20 -7 -20 -15z"/>
<path d="M370 1215 l0 -55 -60 0 c-53 0 -60 -2 -60 -20 0 -11 -6 -20 -14 -20
-23 0 -29 -31 -6 -37 11 -3 20 -14 20 -24 0 -12 7 -19 20 -19 13 0 20 7 20 20
0 13 -7 20 -20 20 -13 0 -20 7 -20 20 0 17 7 20 40 20 33 0 40 -3 40 -20 0
-17 7 -20 40 -20 33 0 40 -3 40 -20 0 -13 -7 -20 -20 -20 -12 0 -20 -7 -20
-16 0 -9 9 -18 20 -21 11 -3 20 -14 20 -24 0 -15 7 -19 35 -19 25 0 35 4 35
16 0 9 9 18 20 21 11 3 20 14 20 24 0 12 7 19 20 19 13 0 20 7 20 20 0 13 7
20 20 20 13 0 20 7 20 20 0 16 -7 20 -35 20 -28 0 -35 -4 -35 -20 0 -13 -7
-20 -19 -20 -11 0 -23 9 -26 20 -3 11 -13 20 -21 20 -10 0 -14 12 -14 40 0 33
3 40 20 40 13 0 20 -7 20 -20 0 -11 7 -20 15 -20 8 0 15 9 15 20 0 11 -6 20
-12 20 -16 0 -58 44 -58 59 0 6 -17 11 -40 11 l-40 0 0 -55z m40 -75 c0 -13 7
-20 20 -20 13 0 20 -7 20 -20 0 -13 -7 -20 -20 -20 -13 0 -20 7 -20 20 0 13
-7 20 -20 20 -13 0 -20 7 -20 20 0 13 7 20 20 20 13 0 20 -7 20 -20z"/>
<path d="M490 1255 c0 -8 7 -15 15 -15 8 0 15 7 15 15 0 8 -7 15 -15 15 -8 0
-15 -7 -15 -15z"/>
<path d="M960 1255 c0 -8 7 -15 15 -15 8 0 15 7 15 15 0 8 -7 15 -15 15 -8 0
-15 -7 -15 -15z"/>
<path d="M1540 1255 c0 -11 11 -15 40 -15 29 0 40 4 40 15 0 11 -11 15 -40 15
-29 0 -40 -4 -40 -15z"/>
<path d="M177 1223 c-13 -12 -7 -23 13 -23 11 0 20 7 20 15 0 15 -21 21 -33 8z"/>
<path d="M250 1215 c0 -8 9 -15 20 -15 11 0 20 7 20 15 0 8 -9 15 -20 15 -11
0 -20 -7 -20 -15z"/>
<path d="M1270 1215 c0 -8 7 -15 15 -15 8 0 15 7 15 15 0 8 -7 15 -15 15 -8 0
-15 -7 -15 -15z"/>
<path d="M100 1180 c0 -11 7 -20 15 -20 8 0 15 9 15 20 0 11 -7 20 -15 20 -8
0 -15 -9 -15 -20z"/>
<path d="M1310 1180 c0 -11 7 -20 15 -20 8 0 15 9 15 20 0 11 -7 20 -15 20 -8
0 -15 -9 -15 -20z"/>
<path d="M140 1100 c0 -11 7 -20 15 -20 8 0 15 9 15 20 0 11 -7 20 -15 20 -8
0 -15 -9 -15 -20z"/>
<path d="M1310 1080 c0 -29 4 -40 15 -40 11 0 15 11 15 40 0 29 -4 40 -15 40
-11 0 -15 -11 -15 -40z"/>
<path d="M100 1020 c0 -17 -7 -20 -40 -20 -33 0 -40 -3 -40 -20 0 -18 7 -20
55 -20 l55 0 0 40 c0 29 -4 40 -15 40 -8 0 -15 -9 -15 -20z"/>
<path d="M175 1030 c-8 -14 3 -30 21 -30 8 0 14 9 14 20 0 21 -24 28 -35 10z"/>
<path d="M570 1020 c0 -11 7 -20 15 -20 8 0 15 -9 15 -20 0 -11 -7 -20 -15
-20 -8 0 -15 -7 -15 -15 0 -8 7 -15 15 -15 8 0 15 7 15 15 0 11 11 15 40 15
l40 0 0 40 c0 33 -3 40 -20 40 -13 0 -20 -7 -20 -20 0 -13 -7 -20 -20 -20 -13
0 -20 7 -20 20 0 11 -7 20 -15 20 -8 0 -15 -9 -15 -20z"/>
<path d="M1350 1020 c0 -16 7 -20 35 -20 33 0 35 -2 35 -35 0 -28 4 -35 20
-35 11 0 20 7 20 15 0 11 11 15 40 15 29 0 40 -4 40 -15 0 -11 11 -15 40 -15
29 0 40 4 40 15 0 8 -9 15 -20 15 -13 0 -20 7 -20 19 0 10 9 21 20 24 11 3 20
12 20 21 0 9 -8 16 -20 16 -13 0 -20 -7 -20 -20 0 -18 -7 -20 -60 -20 -53 0
-60 2 -60 20 0 18 -7 20 -55 20 -48 0 -55 -2 -55 -20z"/>
<path d="M250 980 c0 -18 -7 -20 -55 -20 l-55 0 0 -75 c0 -67 -2 -75 -19 -75
-11 0 -23 9 -26 20 -12 37 -35 23 -35 -20 0 -33 -3 -40 -20 -40 -17 0 -20 -7
-20 -40 0 -33 3 -40 20 -40 18 0 20 -7 20 -55 0 -40 4 -55 14 -55 7 0 16 9 19
20 3 11 12 20 21 20 9 0 16 7 16 15 0 8 -6 15 -14 15 -8 0 -17 7 -20 16 -9 23
-8 24 14 24 27 0 27 36 0 43 -13 3 -18 10 -14 21 9 24 44 20 44 -4 0 -16 7
-20 35 -20 28 0 35 4 35 20 0 13 -7 20 -20 20 -18 0 -20 7 -20 56 0 47 3 57
19 61 11 3 21 13 24 24 3 10 12 19 21 19 9 0 16 7 16 15 0 8 9 15 20 15 11 0
20 -7 20 -15 0 -8 9 -15 20 -15 11 0 20 7 20 15 0 8 -9 15 -20 15 -13 0 -20 7
-20 20 0 13 -7 20 -20 20 -13 0 -20 -7 -20 -20z"/>
<path d="M60 905 c0 -8 7 -15 15 -15 8 0 15 7 15 15 0 8 -7 15 -15 15 -8 0
-15 -7 -15 -15z"/>
<path d="M250 905 c0 -8 9 -15 20 -15 11 0 20 7 20 15 0 8 -9 15 -20 15 -11 0
-20 -7 -20 -15z"/>
<path d="M330 905 c0 -8 9 -15 20 -15 11 0 20 7 20 15 0 8 -9 15 -20 15 -11 0
-20 -7 -20 -15z"/>
<path d="M410 905 c0 -8 9 -15 20 -15 11 0 20 7 20 15 0 8 -9 15 -20 15 -11 0
-20 -7 -20 -15z"/>
<path d="M1380 905 c0 -8 9 -15 20 -15 11 0 20 7 20 15 0 8 -9 15 -20 15 -11
0 -20 -7 -20 -15z"/>
<path d="M1460 900 c0 -13 -7 -20 -20 -20 -16 0 -20 -7 -20 -34 0 -25 -5 -35
-20 -39 -15 -4 -20 -14 -20 -41 0 -25 -4 -36 -15 -36 -8 0 -15 -9 -15 -20 0
-11 7 -20 15 -20 8 0 15 -7 15 -16 0 -9 9 -18 20 -21 11 -3 20 -12 20 -19 0
-8 9 -14 20 -14 18 0 20 7 20 55 l0 55 40 0 40 0 0 -40 c0 -33 3 -40 20 -40
16 0 20 -7 20 -35 0 -28 4 -35 20 -35 18 0 20 7 20 75 l0 75 -40 0 c-33 0 -40
3 -40 20 0 14 7 20 21 20 17 0 20 5 17 38 -3 35 -5 37 -40 40 -30 3 -38 7 -38
23 0 12 7 19 20 19 11 0 20 7 20 15 0 11 -11 15 -40 15 -33 0 -40 -3 -40 -20z
m40 -70 c0 -13 7 -20 20 -20 13 0 20 -7 20 -20 0 -17 -7 -20 -40 -20 -33 0
-40 -3 -40 -20 0 -13 -7 -20 -20 -20 -13 0 -20 -7 -20 -20 0 -13 -7 -20 -20
-20 -13 0 -20 7 -20 20 0 13 7 20 20 20 13 0 20 7 20 20 0 13 7 20 20 20 17 0
20 7 20 40 0 33 3 40 20 40 13 0 20 -7 20 -20z"/>
<path d="M290 866 c0 -7 -9 -16 -20 -19 -11 -3 -20 -12 -20 -21 0 -9 8 -16 20
-16 13 0 20 7 20 20 0 13 7 20 20 20 11 0 20 7 20 15 0 8 -9 15 -20 15 -11 0
-20 -6 -20 -14z"/>
<path d="M1350 865 c0 -8 7 -15 15 -15 8 0 15 7 15 15 0 8 -7 15 -15 15 -8 0
-15 -7 -15 -15z"/>
<path d="M1580 865 c0 -8 9 -15 20 -15 11 0 20 7 20 15 0 8 -9 15 -20 15 -11
0 -20 -7 -20 -15z"/>
<path d="M1270 830 c0 -11 7 -20 15 -20 8 0 15 9 15 20 0 11 -7 20 -15 20 -8
0 -15 -9 -15 -20z"/>
<path d="M293 790 c-3 -11 -14 -20 -24 -20 -12 0 -19 -7 -19 -20 0 -13 7 -20
20 -20 13 0 20 -7 20 -20 0 -18 -7 -20 -75 -20 -68 0 -75 -2 -75 -20 0 -18 7
-20 75 -20 60 0 75 -3 75 -15 0 -8 9 -15 20 -15 11 0 20 7 20 15 0 8 9 15 20
15 13 0 20 7 20 20 0 13 -7 20 -20 20 -13 0 -20 7 -20 20 0 13 7 20 20 20 17
0 20 7 20 40 0 39 -1 40 -36 40 -27 0 -37 -5 -41 -20z m37 -40 c0 -13 -7 -20
-20 -20 -13 0 -20 7 -20 20 0 13 7 20 20 20 13 0 20 -7 20 -20z"/>
<path d="M1310 750 c0 -11 7 -20 15 -20 8 0 15 9 15 20 0 11 -7 20 -15 20 -8
0 -15 -9 -15 -20z"/>
<path d="M1350 635 c0 -8 7 -15 15 -15 8 0 15 7 15 15 0 8 -7 15 -15 15 -8 0
-15 -7 -15 -15z"/>
<path d="M140 555 c0 -42 3 -55 15 -55 11 0 15 11 15 36 0 27 5 37 20 41 35 9
24 33 -15 33 l-35 0 0 -55z"/>
<path d="M250 595 c0 -8 9 -15 20 -15 11 0 20 7 20 15 0 8 -9 15 -20 15 -11 0
-20 -7 -20 -15z"/>
<path d="M330 595 c0 -8 9 -15 20 -15 11 0 20 7 20 15 0 8 -9 15 -20 15 -11 0
-20 -7 -20 -15z"/>
<path d="M990 595 c0 -8 9 -15 20 -15 11 0 20 7 20 15 0 8 -9 15 -20 15 -11 0
-20 -7 -20 -15z"/>
<path d="M1270 595 c0 -8 7 -15 15 -15 8 0 15 7 15 15 0 8 -7 15 -15 15 -8 0
-15 -7 -15 -15z"/>
<path d="M1380 595 c0 -8 9 -15 20 -15 11 0 20 7 20 15 0 8 -9 15 -20 15 -11
0 -20 -7 -20 -15z"/>
<path d="M1460 595 c0 -11 11 -15 40 -15 29 0 40 4 40 15 0 11 -11 15 -40 15
-29 0 -40 -4 -40 -15z"/>
<path d="M20 555 c0 -8 9 -15 20 -15 13 0 20 -7 20 -20 0 -11 7 -20 15 -20 8
0 15 9 15 20 0 11 -7 20 -15 20 -8 0 -15 7 -15 15 0 8 -9 15 -20 15 -11 0 -20
-7 -20 -15z"/>
<path d="M370 535 c0 -34 1 -35 40 -35 30 0 40 4 40 16 0 9 -9 18 -20 21 -11
3 -20 12 -20 19 0 8 -9 14 -20 14 -16 0 -20 -7 -20 -35z"/>
<path d="M1190 555 c0 -13 8 -16 38 -13 20 2 37 8 37 13 0 6 -17 11 -37 13
-30 3 -38 0 -38 -13z"/>
<path d="M1540 555 c0 -8 9 -15 20 -15 11 0 20 7 20 15 0 8 -9 15 -20 15 -11
0 -20 -7 -20 -15z"/>
<path d="M20 420 c0 -72 2 -81 18 -78 14 3 17 15 17 78 0 63 -3 75 -17 78 -16
3 -18 -6 -18 -78z"/>
<path d="M1310 440 c0 -11 7 -20 15 -20 8 0 15 9 15 20 0 11 -7 20 -15 20 -8
0 -15 -9 -15 -20z"/>
<path d="M1580 400 c0 -13 -7 -20 -20 -20 -13 0 -20 -7 -20 -20 0 -12 7 -20
16 -20 9 0 18 9 21 20 3 11 14 20 24 20 12 0 19 7 19 20 0 13 -7 20 -20 20
-13 0 -20 -7 -20 -20z"/>
<path d="M177 374 c-3 -3 -3 -12 0 -20 3 -10 22 -14 59 -14 47 0 54 2 54 20 0
18 -7 20 -53 20 -30 0 -56 -3 -60 -6z"/>
<path d="M20 165 l0 -135 135 0 135 0 0 135 0 135 -135 0 -135 0 0 -135z m230
0 l0 -95 -95 0 -95 0 0 95 0 95 95 0 95 0 0 -95z"/>
<path d="M100 165 l0 -55 55 0 55 0 0 55 0 55 -55 0 -55 0 0 -55z"/>
<path d="M960 280 c0 -16 7 -20 35 -20 28 0 35 -4 35 -20 0 -13 -7 -20 -20
-20 -11 0 -20 -7 -20 -15 0 -12 16 -15 80 -15 64 0 80 3 80 15 0 11 -11 15
-40 15 -33 0 -40 3 -40 20 0 13 -7 20 -20 20 -13 0 -20 7 -20 20 0 16 -7 20
-35 20 -28 0 -35 -4 -35 -20z"/>
<path d="M330 185 c0 -68 2 -75 20 -75 13 0 20 -7 20 -20 0 -13 -7 -20 -20
-20 -13 0 -20 -7 -20 -20 0 -18 7 -20 74 -20 54 0 75 4 79 14 8 20 -2 26 -40
26 -26 0 -33 4 -33 20 0 13 7 20 20 20 13 0 20 7 20 20 0 17 7 20 40 20 33 0
40 -4 40 -19 0 -10 9 -21 20 -24 11 -3 20 -12 20 -21 0 -9 -8 -16 -20 -16 -13
0 -20 -7 -20 -20 0 -16 7 -20 35 -20 l35 0 0 60 c0 53 -2 60 -20 60 -11 0 -20
7 -20 15 0 10 -10 15 -34 15 -25 0 -35 5 -39 20 -3 11 -12 20 -21 20 -12 0
-16 -10 -16 -35 0 -28 -4 -35 -20 -35 -16 0 -20 7 -20 34 0 25 5 35 20 39 11
3 20 12 20 21 0 9 -8 16 -20 16 -13 0 -20 -7 -20 -20 0 -13 -7 -20 -20 -20
-13 0 -20 7 -20 20 0 13 -7 20 -20 20 -18 0 -20 -7 -20 -75z m80 -55 c0 -13
-7 -20 -20 -20 -13 0 -20 7 -20 20 0 13 7 20 20 20 13 0 20 -7 20 -20z"/>
<path d="M640 145 l0 -35 60 0 c53 0 60 -2 60 -20 0 -17 -7 -20 -40 -20 -33 0
-40 -3 -40 -20 0 -17 7 -20 40 -20 33 0 40 3 40 20 0 13 7 20 20 20 13 0 20
-7 20 -20 0 -26 30 -26 37 -1 3 11 14 22 25 24 40 11 12 32 -45 35 l-57 3 0
34 c0 28 -4 35 -20 35 -11 0 -20 -7 -20 -15 0 -8 -9 -15 -20 -15 -11 0 -20 7
-20 15 0 8 -9 15 -20 15 -16 0 -20 -7 -20 -35z"/>
<path d="M1270 90 c0 -11 7 -20 15 -20 8 0 15 9 15 20 0 11 -7 20 -15 20 -8 0
-15 -9 -15 -20z"/>
<path d="M1150 50 c0 -18 7 -20 55 -20 48 0 55 2 55 20 0 18 -7 20 -55 20 -48
0 -55 -2 -55 -20z"/>
</g>
</svg>
